PathFileType	4	(X/Y/Z)	C:/Users/beibeiliu/ov580/test_trc/User2\sequence.28_training_dense_left.trc
DataRate	CameraRate	NumFrames	NumMarkers	Units	OrigDataRate	OrigDataStartFrame	OrigNumFrames
120	120	22	19	mm	120	65	256
Frame#	Time	ThumbCMC			ThumbMCP			ThumbIP			ThumbTip			IndexMCP			IndexPIP			IndexTip			MiddleMCP			MiddlePIP			MiddleTip			RingMCP			RingPIP			RingTip			PinkyMCP			PinkyPIP			PinkyTip			BackHand1			BackHand2			BackHand3	
		X0	Y0	Z0	X1	Y1	Z1	X2	Y2	Z2	X3	Y3	Z3	X4	Y4	Z4	X5	Y5	Z5	X6	Y6	Z6	X7	Y7	Z7	X8	Y8	Z8	X9	Y9	Z9	X10	Y10	Z10	X11	Y11	Z11	X12	Y12	Z12	X13	Y13	Z13	X14	Y14	Z14	X15	Y15	Z15	X16	Y16	Z16	X17	Y17	Z17	X18	Y18	Z18	
64	0.533333	-152.617	-25.2859	89.3257	-135.531	-49.0013	68.797	-124.915	-67.9763	35.7238	-128.518	-83.0962	17.4597	-182.531	3.74453	14.6934	-183.697	3.84588	-15.4004	-183.656	-0.297271	-39.5567	-198.125	-19.5931	6.97562	-188.305	-54.9763	1.69206	-178.175	-59.1228	40.2174	-216.61	-43.7717	16.2965	-199.247	-70.0954	18.8362	-188.118	-61.7294	53.8373	-225.678	-52.7423	32.7166	-204.758	-78.6363	37.4367	-195.89	-68.7819	67.4012	-222.297	-10.8704	75.0019	-219.444	-11.3002	109.105	-186.015	1.53774	87.2189	
65	0.541667	-153.438	-28.7043	88.4336	-139.071	-51.9921	61.5022	-129.929	-71.1799	39.3531	-130.491	-85.6397	15.1721	-181.191	1.33482	17.7624	-184.048	-1.8938	-15.5279	-185.145	-8.15774	-44.3469	-198.981	-22.0775	6.34051	-191.906	-57.5886	2.04886	-183.619	-63.2887	39.017	-212.957	-44.955	15.6182	-198.495	-71.8613	21.3807	-191.409	-64.106	55.2814	-225.54	-57.4968	30.6746	-207.31	-81.6041	40.9249	-194.5	-64.4271	66.9124	-223.202	-13.6501	75.9229	-224.185	-11.8015	106.236	-190.681	0.129363	88.0432	
66	0.55	-152.786	-30.2204	87.7965	-137.912	-52.152	63.4659	-131.237	-70.4764	33.9838	-129.957	-85.1108	11.082	-179.986	0.998392	17.2528	-180.787	-2.75938	-14.6812	-180.451	-12.8506	-43.2221	-201.811	-22.793	5.97191	-189.239	-53.7068	-2.29727	-181.527	-60.5217	40.277	-214.684	-46.0916	15.5584	-200.791	-73.858	21.0655	-190.05	-64.2431	53.07	-229.194	-56.2026	32.2421	-205.176	-78.6507	39.8146	-199.669	-66.3868	69.6731	-223.933	-12.93	75.4981	-223.734	-15.5787	106.096	-190.618	-0.350243	88.9812	
67	0.558333	-151.931	-29.663	87.3759	-139.304	-52.0968	62.5717	-129.85	-68.5924	30.8345	-134.552	-81.5931	7.5363	-181.704	0.370989	16.4209	-178.483	-3.9238	-13.4387	-176.681	-14.7958	-41.0022	-201.34	-21.556	8.47948	-189.329	-54.4413	1.07568	-182.101	-60.2622	39.4914	-213.768	-44.2735	15.6949	-196.738	-70.931	23.2489	-189.84	-59.0206	55.1852	-225.421	-59.1759	29.437	-202.511	-78.4959	43.1456	-199.29	-58.653	69.9525	-225.505	-12.6621	74.7168	-222.257	-16.7816	105.209	-190.498	-1.60025	88.8663	
68	0.566667	-151.046	-29.9939	88.9981	-137.246	-50.8794	61.5299	-132.034	-64.5975	32.6351	-130.652	-78.074	6.79109	-178.022	3.25127	14.3297	-176.226	-3.70248	-17.3586	-176.166	-18.4615	-39.6629	-199.474	-18.3337	8.30142	-188.458	-50.6504	1.34544	-177.512	-56.5872	39.6285	-210.473	-39.3052	16.316	-194.615	-67.2489	21.8706	-190.424	-59.3644	55.6765	-225.482	-56.4818	29.1353	-199.108	-74.4336	41.5618	-195.778	-56.3977	67.599	-223.437	-11.8594	71.6696	-224.716	-16.3446	107.064	-190.883	-2.45554	88.8372	
69	0.575	-152.842	-29.5071	90.7708	-137.759	-47.3671	59.1012	-129.061	-60.2681	28.729	-127.764	-72.656	6.16329	-171.671	7.15919	15.6874	-171.158	-3.06184	-14.9185	-169.577	-19.0805	-37.3147	-195.333	-18.0947	7.94214	-184.025	-48.9247	4.09553	-174.648	-51.6572	45.585	-209.239	-39.5088	17.043	-193.02	-65.2913	21.911	-185.716	-53.3087	56.3266	-220.969	-53.4256	27.5627	-195.563	-70.6217	41.1528	-194.465	-57.0379	69.1321	-223.544	-11.1121	76.3877	-222.714	-19.2485	111.174	-188.883	-1.78799	92.0351	
70	0.583333	-147.243	-28.3347	90.895	-138.309	-45.2322	61.061	-127.232	-57.4859	28.1397	-126.417	-66.7107	3.52463	-167.916	9.34573	17.288	-163.538	1.52266	-8.4907	-163.467	-20.6375	-36.2031	-188.172	-12.9681	12.2708	-178.419	-46.1449	7.6832	-168.59	-47.9697	46.3888	-205.589	-35.585	17.7153	-184.938	-60.6157	26.9321	-185.354	-46.6509	61.7452	-216.634	-51.1608	27.1575	-195.9	-70.8602	42.1478	-193.214	-49.4484	70.7076	-221.4	-9.52246	74.4157	-215.33	-17.5636	110.521	-185.552	-0.988998	94.427	
71	0.591667	-146.106	-25.9215	88.1331	-132.858	-44.6233	62.5435	-127.499	-53.9945	28.313	-123.535	-63.913	2.46008	-169.38	8.36325	18.3383	-161.476	-2.22569	-9.92965	-157.534	-23.3563	-32.5974	-186.765	-10.2233	13.3771	-171.234	-42.4777	9.96301	-166.397	-43.2834	52.1974	-198.033	-34.1094	17.3807	-183.704	-57.5529	24.3702	-183.35	-43.9864	63.171	-215.393	-45.0825	29.8257	-190.691	-65.4894	43.1732	-190.629	-47.3933	72.8412	-218.263	-8.07545	73.5085	-216.27	-16.7283	109.477	-181.252	2.19278	94.3569	
72	0.6	-143.911	-26.6177	93.1326	-132.71	-42.7551	61.5977	-122.779	-52.0355	27.8557	-125.777	-59.6149	2.55951	-165.717	9.99063	19.2272	-159.509	-2.1074	-6.90669	-151.515	-23.2868	-26.3231	-185.245	-11.5024	12.6736	-171.152	-44.0084	14.4943	-167.315	-42.9671	53.0015	-197.143	-32.4321	18.2137	-178.535	-55.9818	28.1929	-179.07	-41.0067	63.4911	-209.298	-41.2349	29.5245	-188.775	-64.3129	43.1376	-191.275	-49.7318	74.8764	-218.775	-7.53692	76.7136	-214.57	-16.8987	112.862	-183.341	1.08061	97.1299	
73	0.608333	-145.405	-25.2295	94.275	-135.45	-38.7751	59.5809	-125.711	-48.6886	24.6764	-122.923	-58.3042	2.80573	-162.027	10.9597	22.7144	-152.333	-3.32576	-4.94983	-149.006	-30.0193	-23.4001	-181.13	-7.57706	15.7885	-168.724	-39.6953	12.6745	-165.977	-40.0359	56.401	-194.354	-27.75	19.4762	-175.673	-53.0307	30.0469	-179.83	-40.2877	64.5161	-205.423	-43.1301	27.7218	-187.556	-64.3125	45.4637	-190.061	-43.7569	73.1871	-214.11	-5.64129	74.8199	-218.088	-17.5715	107.63	-183.588	2.23868	95.9442	
74	0.616667	-147.569	-24.4668	93.5949	-131.404	-38.6786	60.4492	-126.121	-46.91	24.4002	-122.486	-55.2606	2.30582	-161.346	9.83663	23.4446	-153.335	-5.76527	-2.16715	-143.631	-30.5487	-18.6776	-179.84	-6.98308	14.6836	-167.088	-38.6095	14.7377	-161.892	-40.6248	54.0793	-192.914	-24.9475	20.8708	-176.392	-54.4746	30.6341	-178.049	-43.3338	61.5121	-207.562	-42.4455	28.7785	-186.651	-60.5767	42.8949	-189.284	-44.7989	72.5099	-216.869	-9.56112	77.6437	-213.959	-15.8149	111.989	-181.981	2.47276	98.673	
75	0.625	-143.952	-23.5823	93.2776	-133.482	-38.5127	60.1441	-124.143	-45.7539	27.8526	-123.723	-54.0398	2.73462	-162.639	10.3922	23.6307	-152.51	-8.40553	-1.98359	-141.566	-30.9276	-16.4409	-179.517	-3.96525	16.695	-167.126	-37.5326	14.1551	-164.111	-38.3969	56.7983	-194.275	-27.104	20.1462	-174.816	-50.6019	27.9337	-180.377	-40.0531	65.8021	-206.795	-38.0209	30.9283	-187.704	-61.8548	43.8786	-188.337	-43.8509	73.3402	-212.307	-3.99159	74.7826	-213.208	-16.5916	113.517	-183.919	2.18579	101.794	
76	0.633333	-143.699	-22.7483	91.7991	-131.686	-38.229	61.6347	-127.926	-44.8453	27.3635	-122.11	-52.4183	2.4352	-156.928	12.8173	26.947	-147.547	-4.65257	0.0603821	-143.914	-29.839	-15.206	-178.947	-4.21352	15.5044	-167.311	-37.6732	14.1859	-162.516	-40.3141	53.6559	-191.632	-23.1759	20.5136	-177.496	-52.7902	29.5677	-180.058	-42.8079	62.6082	-207.083	-39.9948	28.8095	-187.251	-61.0966	43.4748	-189.957	-43.7484	76.4458	-213.452	-6.39925	78.7964	-217.95	-15.524	109.437	-184.305	4.71494	98.4013	
77	0.641667	-147.898	-24.1381	94.9486	-135.364	-37.413	61.569	-124.566	-45.977	28.3636	-121.975	-52.4864	5.2667	-159.788	11.962	26.2494	-148.834	-3.92418	-0.180809	-143.372	-28.7702	-18.3712	-178.152	-2.19384	17.2692	-165.423	-34.3631	12.8751	-166.098	-40.4144	53.3443	-192.378	-25.5595	20.1495	-178.306	-52.2643	30.52	-180.824	-40.628	64.9937	-204.562	-38.8072	28.3324	-185.239	-59.9004	45.296	-188.519	-44.8002	71.6673	-216.309	-3.69966	77.6244	-216.962	-17.0513	111.21	-185.244	4.29839	99.0615	
78	0.65	-143.74	-24.1921	96.0278	-134.324	-36.6016	60.391	-125.612	-45.1976	29.6238	-124.205	-51.2972	5.04682	-158.17	12.4815	25.3146	-147.909	1.36452	1.62005	-142.772	-19.7874	-18.5365	-182.843	-2.71053	19.4658	-165.011	-37.0548	15.6121	-162.659	-39.9424	53.3363	-193.817	-22.7678	21.643	-178.717	-52.7315	28.7392	-178.665	-43.6299	62.0131	-207.58	-36.4091	31.1752	-184.768	-59.6495	45.7291	-188.49	-46.2568	73.5807	-212.71	-6.21434	79.9422	-215.251	-16.8738	110.263	-181.239	2.5602	100.69	
79	0.658333	-145.175	-23.81	93.9574	-131.683	-37.1811	62.057	-119.558	-45.0744	29.2497	-117.535	-51.7179	5.35263	-161.296	15.4672	26.9647	-151.376	4.7639	-3.46532	-143.42	-8.30324	-23.0221	-181.535	-4.20668	17.7363	-164.217	-33.6431	12.4628	-164.299	-40.6657	52.2684	-189.953	-26.0132	18.3596	-177.294	-51.9822	28.4198	-175.995	-42.3276	62.2677	-205.655	-38.2273	29.2642	-185.398	-61.4697	41.8461	-187.08	-48.3737	71.7174	-214.661	-8.20729	79.0827	-214.63	-15.0571	110.377	-182.823	3.97508	100.351	
80	0.666667	-145.927	-23.766	93.3128	-128.257	-38.1186	64.6844	-121.095	-44.0945	30.1945	-116.157	-52.9166	7.95908	-160.93	17.7629	22.7751	-153.322	9.52485	-5.05229	-143.057	-2.36775	-28.2344	-180.534	-5.47593	17.0813	-164.168	-37.8327	14.1473	-161.219	-39.9082	52.4396	-189.713	-24.911	20.9603	-173.225	-49.5188	26.6176	-174.612	-38.7752	63.9182	-205.085	-43.3702	27.4029	-182.717	-58.4904	41.8067	-186.01	-49.3507	72.8848	-216.423	-5.60164	74.0456	-211.815	-17.0296	110.366	-181.98	2.70989	100.373	
81	0.675	-141.431	-23.8024	94.763	-128.604	-38.1441	62.7597	-117.672	-44.7829	30.7428	-112.631	-53.969	9.12907	-160.431	17.3024	25.7587	-155.245	11.4071	-1.98176	-147.95	-1.34154	-29.4298	-176.118	-5.68031	16.9626	-159.28	-37.0714	14.8153	-163.425	-41.3476	55.6088	-190.561	-27.9708	21.2457	-174.507	-53.421	27.9277	-174.739	-38.8881	65.8473	-199.916	-41.8499	28.7008	-180.485	-59.937	43.9096	-187.479	-49.734	75.8448	-215.925	-8.56026	75.6013	-216.096	-19.7106	108.049	-182.312	1.56914	98.604	
82	0.683333	-142.837	-23.8066	94.9947	-130.767	-39.1496	66.815	-119.127	-46.2189	30.5416	-114.523	-52.5773	8.23214	-158.647	17.8208	25.5447	-151.424	11.3441	-0.881826	-148.008	-1.67065	-26.8793	-178.057	-5.65329	19.6012	-159.697	-39.9023	18.0309	-162.614	-39.9975	57.7299	-188.977	-29.1275	20.5195	-174.41	-54.5454	29.8282	-173.159	-39.9206	64.6846	-204.108	-40.6953	30.7605	-181.688	-62.757	44.3237	-186.818	-50.502	73.7178	-212.221	-5.96647	74.1927	-213.63	-17.4258	109.922	-184.029	1.32212	101.396	
83	0.691667	-144.782	-26.1265	97.6088	-128.023	-39.6154	65.1221	-120.578	-45.8791	32.2158	-112.674	-53.2712	8.01026	-157.378	15.9574	26.9801	-150.732	8.11717	-1.49614	-144.151	-3.39592	-25.9758	-178.142	-9.244	15.842	-162.634	-40.8731	17.5083	-163.099	-40.9041	56.1794	-188.874	-28.463	21.3145	-172.896	-54.5029	29.8648	-176.48	-41.7695	66.2533	-204.276	-43.406	30.0352	-183.486	-64.5522	44.756	-185.618	-46.7895	74.1023	-214.507	-8.94226	73.8286	-216.349	-20.525	108.981	-182.688	1.93181	99.7487	
84	0.7	-143.148	-23.714	93.9061	-128.647	-38.5092	62.2273	-116.75	-45.3207	29.9293	-113.307	-53.5188	8.25572	-156.242	14.557	26.4649	-148.691	2.25087	-3.97561	-139.951	-8.13943	-24.1256	-173.401	-8.40117	16.3646	-161.688	-40.4323	15.715	-159.851	-39.2115	57.5771	-188.467	-30.5072	19.967	-169.95	-53.8069	33.4095	-175.179	-39.2102	66.3893	-199.527	-42.0219	28.2147	-182.754	-63.997	45.6299	-184.649	-46.7065	73.5303	-215.576	-6.76525	73.501	-214.225	-20.0753	110.655	-181.135	2.70131	99.7286	
85	0.708333	-142.692	-25.8162	95.7807	-132.319	-38.0957	61.7759	-124.095	-45.1738	29.9163	-116.374	-51.576	5.86047	-155.535	10.3908	24.0007	-147.98	-0.875435	1.50588	-139.571	-17.3405	-22.4197	-174.099	-6.6995	17.9388	-158.337	-40.5719	19.0233	-159.928	-39.3434	56.5511	-189.324	-31.2989	19.7175	-169.253	-53.1344	31.7981	-177.523	-40.7639	67.138	-201.215	-45.4646	26.7616	-182.142	-62.4258	45.2962	-189.114	-46.1749	77.1763	-214.525	-8.52324	75.41	-212.897	-16.7096	107.85	-179.978	0.878952	102.29	
